<svg id="Layer_1" enable-background="new 0 0 63.999 63.999" height="512" viewBox="0 0 63.999 63.999" width="512" xmlns="http://www.w3.org/2000/svg"><g><path d="m48.672 37.14-4.26-1.068-2.857-1.904c-.25-.167-.567-.198-.856-.109-.05.016-.087.056-.134.079l-.734-2.936c1.953-1.912 3.507-4.434 3.993-7.318 1.726-.478 2.801-2.299 3.112-4.094.076-.493.097-.998-.009-1.566-.132-.714-.424-1.114-.887-1.459.119-2.62.125-11.931-5.399-16.533-.449-.374-1.139-.288-1.472.213-1.704 2.554-5.44 2.554-10.169 2.554-7.093 0-11 3.907-11 11v2.74c-.496.352-.794.766-.926 1.486-.106.568-.085 1.072-.01 1.564.31 1.798 1.382 3.611 3.105 4.092.482 2.967 2.061 5.45 4.002 7.313l-.733 2.931c-.04-.02-.07-.056-.114-.071-.294-.101-.62-.06-.879.114l-2.857 1.904-4.26 1.068c-4.904 1.228-8.328 5.615-8.328 10.671v15.188c0 .553.447 1 1 1s1-.447 1-1v-5h8v5c0 .553.447 1 1 1s1-.447 1-1v-11c0-.553-.447-1-1-1s-1 .447-1 1v4h-4v-8.188c0-2.298 1.558-4.293 3.787-4.852l6.066-1.521c2.078 1.718 5.033 3.563 8.905 4.53.079.021.161.03.242.03s.163-.01.242-.03c3.872-.968 6.826-2.812 8.905-4.53l6.067 1.521c2.229.559 3.786 2.554 3.786 4.852v8.188h-4v-4c0-.553-.447-1-1-1s-1 .447-1 1v11c0 .553.447 1 1 1s1-.447 1-1v-5h8v5c0 .553.447 1 1 1s1-.447 1-1v-15.188c0-5.056-3.425-9.443-8.328-10.671zm-9.934-2.064c.071.288.192.559.343.811-1.034 1.007-3.091 2.506-7.081 4.043-3.995-1.539-6.051-3.04-7.083-4.04.152-.253.272-.525.344-.812l.616-2.466c2.139 1.539 4.442 2.388 6.123 2.388 1.851 0 4.09-.864 6.131-2.355zm6.151-16.692c.136.327.128.748.07 1.095-.121.721-.437 1.486-.96 2.017v-2.922c.192-.096.73-.332.89-.19zm-24.889 3.115c-.525-.531-.839-1.294-.96-2.018-.059-.35-.066-.767.07-1.098.156-.137.677.084.89.19zm0-5.049v-2.451c0-5.972 3.028-9 9-9 4.62 0 8.67 0 11.104-2.536 3.894 4.068 4.018 11.493 3.941 13.975-.418.101-.254.07-.494.163-.414-1.048-1.099-2.564-1.844-3.309-1.261-1.261-4.267-1.541-9.067-1.853-3.208-.208-6.843-.444-8.085-1.272-.674-.448-1.555.045-1.555.832 0 2.59-1.45 4.758-2.228 5.736-.518-.242-.594-.24-.772-.285zm2 1.935c.685-.777 2.41-2.971 2.881-5.91 1.902.589 4.703.771 7.628.961 2.939.191 6.964.452 7.783 1.271.58.58 1.33 2.369 1.707 3.463v3.83c0 6.088-6.158 11-10 11-3.423 0-10-4.645-10-11v-3.615zm-5.7 22.635c-3.121.781-5.3 3.574-5.3 6.791v8.188h-2v-8.188c0-4.136 2.802-7.727 6.814-8.731l3.779-.948c.318.409.808.997 1.488 1.69zm15.7 2.947c-5.66-1.491-9.206-5.119-10.554-6.73l1.245-.829c1.929 2.511 5.978 4.411 8.957 5.528.227.084.477.084.703 0 2.979-1.117 7.028-3.018 8.957-5.528l1.247.831c-1.34 1.609-4.872 5.231-10.555 6.728zm21 12.032v-8.188c0-3.217-2.18-6.01-5.3-6.791l-4.782-1.198c.68-.693 1.17-1.281 1.488-1.69l3.779.948c4.013 1.004 6.815 4.595 6.815 8.731v8.188z"/><path d="m40 50.999c-1.654 0-3 1.346-3 3s1.346 3 3 3 3-1.346 3-3-1.346-3-3-3zm0 4c-.552 0-1-.448-1-1s.448-1 1-1 1 .448 1 1-.449 1-1 1z"/><path d="m34 8.999c4.488 0 5.764-2.292 5.895-2.553.242-.484.048-1.061-.43-1.316-.476-.256-1.078-.071-1.347.398-.035.061-.879 1.471-4.118 1.471-.552 0-1 .448-1 1s.447 1 1 1z"/></g></svg>